<svg width="252" height="64" viewBox="0 0 252 64" fill="none" xmlns="http://www.w3.org/2000/svg">
<path d="M88.3408 35.9783C87.0282 35.9783 85.7469 35.7127 84.4968 35.1814C83.278 34.6501 82.2935 33.9001 81.5435 32.9312V44.9788H76.2932V15.2583H80.8403L81.3091 18.2116C82.2779 17.2116 83.4342 16.3834 84.7781 15.7271C86.1219 15.0708 87.6376 14.7427 89.3252 14.7427C91.2003 14.7427 92.8723 15.1802 94.3411 16.0552C95.81 16.9303 96.9663 18.1804 97.8101 19.8055C98.6851 21.3993 99.1227 23.29 99.1227 25.4777C99.1227 27.6653 98.6539 29.5404 97.7163 31.103C96.7788 32.6656 95.4974 33.8688 93.8724 34.7126C92.2473 35.5564 90.4034 35.9783 88.3408 35.9783ZM87.3095 31.8062C88.4658 31.8062 89.5283 31.5405 90.4972 31.0093C91.4972 30.478 92.2941 29.7436 92.8879 28.806C93.4817 27.8372 93.7786 26.759 93.7786 25.5714C93.7786 24.3214 93.4973 23.2119 92.9348 22.2431C92.4035 21.2743 91.6691 20.5243 90.7315 19.993C89.8252 19.4617 88.8096 19.1961 87.6845 19.1961C86.1219 19.1961 84.8093 19.5867 83.7468 20.368C82.7154 21.118 81.981 22.1494 81.5435 23.4619V27.4465C81.8248 28.7279 82.4967 29.7748 83.5592 30.5874C84.6218 31.3999 85.8719 31.8062 87.3095 31.8062ZM114.755 25.337C114.755 23.3369 115.224 21.5399 116.161 19.9461C117.13 18.3523 118.443 17.0866 120.099 16.149C121.787 15.2114 123.724 14.7427 125.912 14.7427C128.131 14.7427 130.053 15.2114 131.678 16.149C133.334 17.0866 134.615 18.3523 135.522 19.9461C136.428 21.5399 136.881 23.3369 136.881 25.337C136.881 27.3372 136.428 29.1498 135.522 30.7749C134.615 32.3687 133.334 33.6344 131.678 34.572C130.021 35.5095 128.084 35.9783 125.865 35.9783C123.709 35.9783 121.787 35.5564 120.099 34.7126C118.443 33.8375 117.13 32.6031 116.161 31.0093C115.224 29.4154 114.755 27.5247 114.755 25.337ZM120.052 25.3839C120.052 26.5715 120.302 27.6497 120.802 28.6185C121.302 29.556 121.974 30.3061 122.818 30.8686C123.693 31.3999 124.677 31.6655 125.771 31.6655C127.49 31.6655 128.881 31.0718 129.943 29.8842C131.006 28.6654 131.537 27.1653 131.537 25.3839C131.537 23.6026 131.006 22.1025 129.943 20.8837C128.881 19.6648 127.49 19.0554 125.771 19.0554C124.677 19.0554 123.693 19.3523 122.818 19.9461C121.974 20.5086 121.302 21.2743 120.802 22.2431C120.302 23.1807 120.052 24.2276 120.052 25.3839ZM154.118 15.6333H159.368V35.4626H154.118V15.6333ZM153.883 8.5548C153.883 7.74225 154.196 7.07034 154.821 6.53905C155.477 6.00777 156.18 5.74213 156.93 5.74213C157.649 5.74213 158.321 6.00777 158.946 6.53905C159.571 7.07034 159.884 7.74225 159.884 8.5548C159.884 9.36735 159.571 10.0393 158.946 10.5705C158.321 11.0706 157.649 11.3206 156.93 11.3206C156.18 11.3206 155.477 11.0706 154.821 10.5705C154.196 10.0393 153.883 9.36735 153.883 8.5548ZM184.242 35.8845C182.742 35.8845 181.305 35.6189 179.93 35.0876C178.586 34.5563 177.445 33.775 176.508 32.7437L178.758 29.7904C179.633 30.6342 180.492 31.2593 181.336 31.6655C182.211 32.0406 183.039 32.2281 183.821 32.2281C184.696 32.2281 185.446 32.0718 186.071 31.7593C186.727 31.4155 187.055 30.853 187.055 30.0717C187.055 29.4467 186.836 28.9623 186.399 28.6185C185.961 28.2435 185.399 27.9466 184.711 27.7278C184.024 27.4778 183.305 27.2434 182.555 27.0246C180.836 26.4934 179.555 25.7121 178.711 24.6808C177.867 23.6494 177.445 22.4619 177.445 21.118C177.445 20.0867 177.711 19.1023 178.242 18.1647C178.773 17.1959 179.57 16.399 180.633 15.774C181.727 15.1489 183.117 14.8364 184.805 14.8364C186.274 14.8364 187.571 15.0083 188.696 15.3521C189.821 15.6958 190.868 16.2428 191.837 16.9928L189.821 20.1336C189.258 19.6023 188.586 19.1961 187.805 18.9148C187.055 18.6023 186.368 18.4304 185.743 18.3991C184.899 18.3679 184.196 18.5398 183.633 18.9148C183.071 19.2898 182.789 19.7898 182.789 20.4149C182.758 21.0399 182.961 21.5399 183.399 21.915C183.867 22.29 184.461 22.5869 185.18 22.8056C185.899 23.0244 186.618 23.2588 187.336 23.5088C188.774 23.9776 189.962 24.6495 190.899 25.5246C191.837 26.3684 192.305 27.5559 192.305 29.0873C192.305 30.3061 192.009 31.4312 191.415 32.4625C190.821 33.4938 189.93 34.322 188.743 34.947C187.555 35.572 186.055 35.8845 184.242 35.8845ZM219.3 35.9783C216.956 35.9783 214.956 35.5252 213.3 34.6188C211.643 33.7125 210.378 32.4625 209.503 30.8686C208.628 29.2435 208.19 27.4153 208.19 25.3839C208.19 23.4151 208.69 21.6337 209.69 20.0399C210.69 18.4148 212.034 17.1334 213.722 16.1959C215.409 15.2271 217.3 14.7427 219.394 14.7427C222.113 14.7427 224.347 15.5396 226.097 17.1334C227.879 18.696 229.066 20.9149 229.66 23.7901L214.425 28.9466C215.55 30.6342 217.206 31.478 219.394 31.478C220.206 31.478 220.972 31.3374 221.691 31.0561C222.441 30.7749 223.16 30.3998 223.847 29.9311L226.238 33.8219C225.175 34.4782 224.035 35.0095 222.816 35.4158C221.597 35.7908 220.425 35.9783 219.3 35.9783ZM213.347 25.1027C213.347 25.3527 213.362 25.6183 213.393 25.8996L223.8 22.1962C223.425 21.3212 222.863 20.5555 222.113 19.8992C221.363 19.2117 220.316 18.8679 218.972 18.8679C217.316 18.8679 215.956 19.4461 214.894 20.6024C213.862 21.7587 213.347 23.2588 213.347 25.1027ZM244.155 32.6031C244.155 31.8218 244.452 31.1499 245.046 30.5874C245.639 30.0248 246.296 29.7436 247.014 29.7436C247.671 29.7436 248.296 30.0248 248.889 30.5874C249.483 31.1499 249.78 31.8218 249.78 32.6031C249.78 33.4782 249.483 34.1813 248.889 34.7126C248.296 35.2126 247.671 35.4626 247.014 35.4626C246.296 35.4626 245.639 35.2126 245.046 34.7126C244.452 34.1813 244.155 33.4782 244.155 32.6031Z" fill="white"/>
<path fill-rule="evenodd" clip-rule="evenodd" d="M48.0629 23.7048C48.0629 36.7086 37.3104 47.2502 24.0466 47.2502C21.212 47.2502 18.4921 46.7688 15.9674 45.8848L2.27206 63.1248C1.55559 64.0267 0.080501 63.53 0.080501 62.3868V25.2399C0.0471873 24.7324 0.0302734 24.2206 0.0302734 23.7048C0.0302734 10.7011 10.7827 0.159424 24.0466 0.159424C37.3104 0.159424 48.0629 10.7011 48.0629 23.7048ZM26.6389 14.8721C25.5672 14.8721 24.7138 15.3649 24.1136 16.0805C23.5561 16.7451 23.2122 17.5979 22.9826 18.4543C22.5217 20.1739 22.3885 22.4393 22.3885 24.7806C22.3885 27.0822 22.2498 29.0204 21.895 30.3437C21.7167 31.0088 21.5169 31.3872 21.3606 31.5735C21.2593 31.6943 21.2242 31.6895 21.2066 31.6871C21.2044 31.6868 21.2026 31.6865 21.2008 31.6865C21.0126 31.6865 20.9377 31.6415 20.8724 31.5852C20.7709 31.4978 20.6108 31.296 20.4428 30.8626C20.0941 29.963 19.9001 28.5893 19.7365 26.7519L19.7364 26.7501C19.5825 25.045 18.3149 23.2793 16.2936 23.2793H14.1184C13.2726 23.2793 12.587 23.9514 12.587 24.7806C12.587 25.6097 13.2726 26.2819 14.1184 26.2819H16.2936C16.295 26.2819 16.2968 26.282 16.3 26.2827C16.3035 26.2835 16.3108 26.2856 16.3222 26.291C16.3453 26.3019 16.3876 26.328 16.4386 26.3836C16.5429 26.4973 16.658 26.709 16.6856 27.014C16.8451 28.805 17.0583 30.5835 17.5799 31.9292C17.8471 32.6185 18.2379 33.3126 18.8505 33.8405C19.4992 34.3995 20.3015 34.6891 21.2008 34.6891C22.2725 34.6891 23.1259 34.1962 23.7261 33.4806C24.2836 32.816 24.6275 31.9632 24.8571 31.1069C25.3181 29.3872 25.4512 27.1218 25.4512 24.7806C25.4512 22.4789 25.59 20.5407 25.9447 19.2175C26.123 18.5524 26.3228 18.1739 26.4791 17.9876C26.5804 17.8668 26.6155 17.8717 26.6332 17.8741C26.6353 17.8744 26.6372 17.8746 26.6389 17.8746C26.8267 17.8746 26.9016 17.9195 26.9672 17.9761C27.0689 18.0638 27.2292 18.2661 27.3973 18.6997C27.7461 19.5996 27.9402 20.9734 28.1032 22.809L28.1033 22.8102C28.2556 24.5095 29.5229 26.2819 31.544 26.2819H33.7192C34.5649 26.2819 35.2505 25.6097 35.2505 24.7806C35.2505 23.9514 34.5649 23.2793 33.7192 23.2793H31.544C31.5436 23.2793 31.5426 23.2793 31.54 23.2787C31.5371 23.278 31.53 23.2761 31.5187 23.2707C31.4956 23.2597 31.4529 23.2332 31.4014 23.1769C31.2958 23.0617 31.1813 22.8494 31.1542 22.5479C30.9952 20.758 30.782 18.9794 30.2602 17.6332C29.993 16.9437 29.6022 16.2494 28.9897 15.7213C28.3411 15.1622 27.5387 14.8721 26.6389 14.8721Z" fill="#F1C102"/>
</svg>
